<svg display="none" width="0" height="0" version="1.1" xmlns="http://www.w3.org/2000/svg" xmlns:xlink="http://www.w3.org/1999/xlink">
	<defs>
		<symbol id="img-twitter"  viewBox="0 0 46 46">
			<path  fill="#3CAEF0" d="M43,10.6c-1.5,0.7-3.1,1.1-4.7,1.3c1.7-1.1,2.9-2.7,3.6-4.5c-1.6,0.9-3.3,1.6-5.2,2c-1.5-1.6-3.6-2.5-6-2.5 c-4.5,0-8.2,3.7-8.2,8.2c0,0.7,0.1,1.3,0.3,1.9C16,16.5,9.9,13.3,5.9,8.2c-0.7,1.2-1.1,2.7-1.1,4.1c0,2.8,1.5,5.3,3.6,6.8 c-1.3,0-2.7-0.4-3.7-1.1v0.1c0,4,2.8,7.3,6.5,8c-0.7,0.1-1.5,0.3-2.1,0.3c-0.5,0-1.1,0-1.6-0.1c1.1,3.2,4.1,5.6,7.6,5.7 c-2.8,2.1-6.4,3.5-10.1,3.5c-0.7,0-1.3,0-2-0.1c3.6,2.3,8,3.7,12.5,3.7c15,0,23.3-12.5,23.3-23.3v-1.1 C40.5,13.6,41.9,12.2,43,10.6z"/>
		</symbol>
		<symbol id="img-whatsapp" viewBox="0 0 46 46">
			<path  fill="#00B401" d="M33.6,6.1C30.4,3.9,26.7,2.9,23,2.9c-11,0-20,9-20,20c0,3.8,1.1,7.6,3.2,10.8l-3.1,8.1c-0.2,0.4,0,0.9,0.5,1.1 c0.1,0,0.2,0.1,0.3,0.1c0.1,0,0.2,0,0.3,0l8.3-3c9.4,5.8,21.7,3,27.5-6.4C45.8,24.2,43,11.9,33.6,6.1z M33.5,29 c-0.4,2.6-2.6,4.4-5.2,4.4c-2.7,0-8-3.3-10.2-5.5s-5.5-7.5-5.5-10.2c0-2.5,1.9-4.8,4.4-5.2h1.7c0.4,0,0.7,0.2,0.8,0.5 c0,0,1,2.2,1.7,3.5c0.8,1.5-0.7,3.3-1.5,4.1c0.5,1.3,1.2,2.5,2.2,3.5c1,0.9,2.2,1.7,3.5,2.2c0.8-0.8,2.6-2.3,4.1-1.5 c1.4,0.7,3.5,1.7,3.5,1.7c0.3,0.1,0.5,0.4,0.5,0.8V29z"/>
		</symbol>
		<symbol id="img-chat" viewBox="0 0 52 52">
			<path  fill="#00B401" d="M33.6,6.1C30.4,3.9,26.7,2.9,23,2.9c-11,0-20,9-20,20c0,3.8,1.1,7.6,3.2,10.8l-3.1,8.1c-0.2,0.4,0,0.9,0.5,1.1 c0.1,0,0.2,0.1,0.3,0.1c0.1,0,0.2,0,0.3,0l8.3-3c9.4,5.8,21.7,3,27.5-6.4C45.8,24.2,43,11.9,33.6,6.1z M33.5,29 c-0.4,2.6-2.6,4.4-5.2,4.4c-2.7,0-8-3.3-10.2-5.5s-5.5-7.5-5.5-10.2c0-2.5,1.9-4.8,4.4-5.2h1.7c0.4,0,0.7,0.2,0.8,0.5 c0,0,1,2.2,1.7,3.5c0.8,1.5-0.7,3.3-1.5,4.1c0.5,1.3,1.2,2.5,2.2,3.5c1,0.9,2.2,1.7,3.5,2.2c0.8-0.8,2.6-2.3,4.1-1.5 c1.4,0.7,3.5,1.7,3.5,1.7c0.3,0.1,0.5,0.4,0.5,0.8V29z"/>
		</symbol>
		<symbol id="img-call" viewBox="0 0 52 52">
			<path fill="#A54D8A" d="M33.9,29.8c-1.4-1.4-3.1-1.4-4.4,0c-1,1-2.1,2.1-3.1,3.1c-0.3,0.3-0.5,0.3-0.9,0.2c-0.7-0.4-1.4-0.7-2-1.1
			c-3-1.9-5.5-4.3-7.8-7.1c-1.1-1.4-2.1-2.8-2.8-4.5c-0.1-0.3-0.1-0.6,0.2-0.8c1-1,2.1-2,3.1-3.1c1.4-1.4,1.4-3.1,0-4.6
			c-0.8-0.8-1.6-1.6-2.4-2.4C12.9,8.7,12,7.9,11.2,7C9.8,5.7,8.1,5.7,6.7,7c-1,1-2.1,2.1-3.1,3.1c-1,0.9-1.5,2.1-1.6,3.4
			c-0.2,2.2,0.4,4.2,1.1,6.2C4.7,23.9,7,27.6,9.9,31c3.8,4.6,8.4,8.2,13.8,10.8c2.4,1.2,4.9,2.1,7.6,2.2c1.9,0.1,3.5-0.4,4.8-1.8
			c0.9-1,1.9-1.9,2.8-2.9c1.4-1.4,1.4-3.1,0-4.5C37.3,33.1,35.6,31.4,33.9,29.8z"/>
		<path fill="#A54D8A" d="M32.3,22.8l3.2-0.6c-0.5-3-1.9-5.6-4-7.8c-2.2-2.2-5.1-3.7-8.2-4.1l-0.5,3.2c2.4,0.3,4.6,1.4,6.4,3.2
			C30.8,18.4,31.9,20.5,32.3,22.8z"/>
		<path fill="#A54D8A" d="M37.3,8.8C33.6,5.1,28.9,2.7,23.7,2l-0.5,3.2c4.5,0.6,8.6,2.7,11.8,5.9C38,14.2,40,18,40.8,22.3l3.2-0.6
			C43.2,16.8,40.8,12.3,37.3,8.8z"/>
		</symbol>
		<symbol id="img-enquire" viewBox="0 0 52 52">
			<path  fill="#A54D8A" d="M39.8,6.2H6.2C3.9,6.2,2,8.1,2,10.4v25.2c0,2.3,1.9,4.2,4.2,4.2h33.6c2.3,0,4.2-1.9,4.2-4.2V10.4
			C44,8.1,42.1,6.2,39.8,6.2z M39.8,35.6h-4.2V17.1l-12.6,8l-12.6-8v18.5H6.2V10.4h2.5L23,19.2l14.3-8.8h2.5V35.6z"/>
		</symbol>
		<symbol id="img-arrow" viewBox="0 0 46 46">
			<path fill="#fff"  d="M5,25.1h31L28.1,33c-0.7,0.7-0.7,2.2,0,2.9c0.4,0.4,0.9,0.5,1.4,0.5s1.1-0.2,1.4-0.5l11.5-11.5c0.7-0.7,0.7-2.2,0-2.9 L31,10.2c-0.7-0.7-2.2-0.7-2.9,0c-0.7,0.7-0.7,2.2,0,2.9L36,21H5c-1.1,0-2,0.9-2,2C3,24.2,3.9,25.1,5,25.1z"/>
		</symbol>
		<symbol id="img-balcony" viewBox="0 0 46 46">
			<path  d="M5.4,35.9h4.7v-7h2.3v7h2.3v-7H17v7h2.3v-7h2.3v7h2.3v-7h2.3v7h2.3v-7h2.3v7h2.3v-7h2.3v7h4.8v-7H43v-2.3H3v2.3h2.4V35.9z"/><path  d="M35.9,15.9c0-6.7-5.2-12.3-11.7-12.9v1.2c0,4,1.8,7.7,5,10.2c2,1.5,4.3,2.4,6.7,2.6V15.9z"/><path  d="M21.8,4.2V3c-6.6,0.6-11.7,6.2-11.7,12.9V17c2-0.2,3.9-0.8,5.7-1.9C19.6,12.8,21.8,8.7,21.8,4.2z"/><path  d="M35.9,24.2v-4.8c-1.6-0.1-3.2-0.5-4.7-1.1v6h4.7V24.2z"/><path  d="M10.1,24.2h4.7v-5.9c-1.5,0.6-3.1,1-4.7,1.1C10.1,19.3,10.1,24.2,10.1,24.2z"/><path  d="M5.4,38.2h35.2V43H5.4V38.2z"/>
		</symbol>
		<symbol id="img-bath" viewBox="0 0 46 46">
			<path  d="M33.6,25.4c-1.8,0-3.3,0-4.7-0.1v7.1h4.7V25.4z"/><path  d="M40.7,25.3c0-0.3,0-15.9,0-16.3c0-2.6-2.1-4.7-4.7-4.7c-2.6,0-4.7,2.1-4.7,4.7v0.2c-1.4,0.5-2.3,1.8-2.3,3.3V16h7v-3.5 c0-1.5-1-2.8-2.3-3.3V9c0-1.3,1.1-2.3,2.3-2.3c1.2,0,2.3,1.1,2.3,2.3v11.8c-0.4-0.1-0.8-0.2-1.2-0.2h-3.5v2.3H37 c0.6,0,1.2,0.5,1.2,1.2v1.2c-0.5,0-1.8,0-2.3,0v9.4h-9.4v-9.6c-3.1-0.4-5.6-1.2-8.5-2.9c-6.5-3.9-11.5-3.9-13.6-3.9H3.1v1.2 c0,7.5,0,12.1,4.9,19.4l0.4,0.5h1.9v2.3h2.3v-2.3h23.4v2.3h2.3v-2.3h2l0.3-0.7c2-5.1,2.4-8.3,2.4-12.2v-1.2 C41.8,25.3,42.8,25.3,40.7,25.3z"/>
		</symbol>
		<symbol id="img-bed" viewBox="0 0 46 46">
			<path  d="M6.7,21.7C7,21,7.5,20.4,8.1,20c0.8-0.6,1.8-1,2.8-1c1.8,0,3.6,0,5.5,0c1.7,0,3.1,0.8,4,2.3c0.1,0.1,0.1,0.2,0.2,0.4 C15.9,21.7,11.3,21.7,6.7,21.7z M25.7,21.7c0.3-0.7,0.8-1.3,1.4-1.7c0.8-0.6,1.8-1,2.8-1c1.8,0,3.6,0,5.5,0c1.7,0,3.1,0.8,4,2.3 c0.1,0.1,0.1,0.2,0.2,0.4C34.9,21.7,30.3,21.7,25.7,21.7z"/><path  d="M5.2,34.9c0.1,0,0.2,0.2,0.2,0.3c0,0.8,0,1.5,0,2.3c0,0.7,0.5,1.2,1.2,1.1c0.6,0,1.1-0.5,1.1-1.1c0-0.3,0-0.7,0-1 c0-0.5,0-1,0-1.5c10.2,0,20.4,0,30.6,0c0,0.8,0,1.6,0,2.4s0.5,1.3,1.2,1.3s1.2-0.5,1.2-1.3c0-0.7,0-1.4,0-2.1c0-0.2,0-0.3,0.2-0.4 c1.4-0.4,2.1-1.4,2.1-2.8c0-1.7,0-3.4,0-5c0-1.9-1.1-3-3-3c-10.7,0-21.4,0-32.1,0c-0.7,0-1.5,0-2.2,0c-1.2,0-2.2,0.8-2.6,1.9 c0,0.1-0.1,0.2-0.1,0.3c0,2.1,0,4.3,0,6.4c0,0,0,0,0,0.1C3.4,33.9,4.1,34.6,5.2,34.9z"/><path  d="M6.6,8.9c0,2.9,0,5.8,0,8.7c0,0.1,0,0.3,0,0.4c0.8-0.4,1.5-0.8,2.3-1.2c0-1,0-2,0-3c1.3,0,2.5,0,3.8,0c0,1,0,1.9,0,2.8 c0.8,0,1.6,0,2.3,0c0-1,0-1.9,0-2.8c1.3,0,2.5,0,3.8,0c0,0.9,0,1.7,0,2.5c0,0.6,0.1,0.9,0.7,1.2c0.6,0.3,1.1,0.7,1.7,1.1 c0-1.6,0-3.2,0-4.8c1.3,0,2.5,0,3.8,0c0,1.6,0,3.2,0,4.8c0.6-0.4,1.1-0.8,1.6-1.1c0.6-0.3,0.8-0.6,0.7-1.2c-0.1-0.8,0-1.7,0-2.5 c1.3,0,2.5,0,3.8,0c0,1,0,1.9,0,2.8c0.8,0,1.6,0,2.3,0c0-1,0-1.9,0-2.8c1.3,0,2.5,0,3.8,0c0,1.1,0,2.1,0,3c0.8,0.4,1.6,0.8,2.3,1.2 c0-0.1,0-0.3,0-0.4c0-2.9,0-5.8,0-8.7c0-0.7-0.2-1.3-0.9-1.6c-0.2,0-0.4,0-0.6,0c-0.7,0.3-0.9,0.8-0.9,1.6c0,0.8,0,1.6,0,2.5 c-9.4,0-18.8,0-28.3,0c0-0.4,0-0.7,0-1.1c0-0.5,0-0.9,0-1.4c0.1-0.7-0.2-1.3-0.9-1.6c-0.2,0-0.4,0-0.6,0C6.8,7.6,6.6,8.2,6.6,8.9z"/><path  d="M35.4,19c-1.8,0-3.6,0-5.5,0c-1,0-2,0.3-2.8,1c-0.6,0.5-1,1-1.4,1.7c4.6,0,9.2,0,13.8,0c-0.1-0.2-0.1-0.3-0.2-0.4 C38.4,19.8,37.1,19,35.4,19z"/><path  d="M16.3,19c-1.8,0-3.6,0-5.5,0c-1,0-2,0.3-2.8,1c-0.6,0.5-1,1-1.4,1.7c4.6,0,9.2,0,13.8,0c-0.1-0.2-0.1-0.3-0.2-0.4 C19.4,19.8,18,19,16.3,19z"/>
		</symbol>
		<symbol id="img-bed-search" viewBox="0 0 46 46">
			<path  fill="#5da7a6" d="M6.7,21.7C7,21,7.5,20.4,8.1,20c0.8-0.6,1.8-1,2.8-1c1.8,0,3.6,0,5.5,0c1.7,0,3.1,0.8,4,2.3c0.1,0.1,0.1,0.2,0.2,0.4 C15.9,21.7,11.3,21.7,6.7,21.7z M25.7,21.7c0.3-0.7,0.8-1.3,1.4-1.7c0.8-0.6,1.8-1,2.8-1c1.8,0,3.6,0,5.5,0c1.7,0,3.1,0.8,4,2.3 c0.1,0.1,0.1,0.2,0.2,0.4C34.9,21.7,30.3,21.7,25.7,21.7z"/><path  fill="#5da7a6" d="M5.2,34.9c0.1,0,0.2,0.2,0.2,0.3c0,0.8,0,1.5,0,2.3c0,0.7,0.5,1.2,1.2,1.1c0.6,0,1.1-0.5,1.1-1.1c0-0.3,0-0.7,0-1 c0-0.5,0-1,0-1.5c10.2,0,20.4,0,30.6,0c0,0.8,0,1.6,0,2.4s0.5,1.3,1.2,1.3s1.2-0.5,1.2-1.3c0-0.7,0-1.4,0-2.1c0-0.2,0-0.3,0.2-0.4 c1.4-0.4,2.1-1.4,2.1-2.8c0-1.7,0-3.4,0-5c0-1.9-1.1-3-3-3c-10.7,0-21.4,0-32.1,0c-0.7,0-1.5,0-2.2,0c-1.2,0-2.2,0.8-2.6,1.9 c0,0.1-0.1,0.2-0.1,0.3c0,2.1,0,4.3,0,6.4c0,0,0,0,0,0.1C3.4,33.9,4.1,34.6,5.2,34.9z"/><path fill="#5da7a6"  d="M6.6,8.9c0,2.9,0,5.8,0,8.7c0,0.1,0,0.3,0,0.4c0.8-0.4,1.5-0.8,2.3-1.2c0-1,0-2,0-3c1.3,0,2.5,0,3.8,0c0,1,0,1.9,0,2.8 c0.8,0,1.6,0,2.3,0c0-1,0-1.9,0-2.8c1.3,0,2.5,0,3.8,0c0,0.9,0,1.7,0,2.5c0,0.6,0.1,0.9,0.7,1.2c0.6,0.3,1.1,0.7,1.7,1.1 c0-1.6,0-3.2,0-4.8c1.3,0,2.5,0,3.8,0c0,1.6,0,3.2,0,4.8c0.6-0.4,1.1-0.8,1.6-1.1c0.6-0.3,0.8-0.6,0.7-1.2c-0.1-0.8,0-1.7,0-2.5 c1.3,0,2.5,0,3.8,0c0,1,0,1.9,0,2.8c0.8,0,1.6,0,2.3,0c0-1,0-1.9,0-2.8c1.3,0,2.5,0,3.8,0c0,1.1,0,2.1,0,3c0.8,0.4,1.6,0.8,2.3,1.2 c0-0.1,0-0.3,0-0.4c0-2.9,0-5.8,0-8.7c0-0.7-0.2-1.3-0.9-1.6c-0.2,0-0.4,0-0.6,0c-0.7,0.3-0.9,0.8-0.9,1.6c0,0.8,0,1.6,0,2.5 c-9.4,0-18.8,0-28.3,0c0-0.4,0-0.7,0-1.1c0-0.5,0-0.9,0-1.4c0.1-0.7-0.2-1.3-0.9-1.6c-0.2,0-0.4,0-0.6,0C6.8,7.6,6.6,8.2,6.6,8.9z"/><path fill="#5da7a6"  d="M35.4,19c-1.8,0-3.6,0-5.5,0c-1,0-2,0.3-2.8,1c-0.6,0.5-1,1-1.4,1.7c4.6,0,9.2,0,13.8,0c-0.1-0.2-0.1-0.3-0.2-0.4 C38.4,19.8,37.1,19,35.4,19z"/><path fill="#5da7a6"  d="M16.3,19c-1.8,0-3.6,0-5.5,0c-1,0-2,0.3-2.8,1c-0.6,0.5-1,1-1.4,1.7c4.6,0,9.2,0,13.8,0c-0.1-0.2-0.1-0.3-0.2-0.4 C19.4,19.8,18,19,16.3,19z"/>
		</symbol>
		<symbol id="img-facebook" viewBox="0 0 46 46">
			<path  fill="#375899" d="M33.1,3h-5.2c-5.9,0-9.6,3.9-9.6,9.9v4.5H13c-0.4,0-0.8,0.4-0.8,0.8v6.6c0,0.4,0.4,0.8,0.8,0.8h5.2v16.6 c0,0.4,0.4,0.8,0.8,0.8h6.8c0.4,0,0.8-0.4,0.8-0.8V25.6h6.2c0.4,0,0.8-0.4,0.8-0.8v-6.6c0-0.3-0.1-0.4-0.3-0.5 c-0.1-0.1-0.4-0.3-0.5-0.3h-6.2v-3.9c0-1.9,0.4-2.8,2.8-2.8H33c0.4,0,0.8-0.4,0.8-0.8V3.7C33.9,3.4,33.5,3,33.1,3z"/>
		</symbol>
		<symbol id="img-list-view" viewBox="0 0 46 46">
			<path  d="M39.7,29.5H6.3c-0.3,0-0.6,0.1-0.9,0.4S5,30.5,5,30.8v5.1c0,0.3,0.1,0.6,0.4,0.9s0.6,0.4,0.9,0.4h33.4 c0.3,0,0.6-0.1,0.9-0.4s0.4-0.6,0.4-0.9v-5.1c0-0.3-0.1-0.7-0.4-0.9C40.4,29.5,40.1,29.5,39.7,29.5z M38.4,34.6H25.6V32h12.9 L38.4,34.6L38.4,34.6z"/><path  d="M39.7,19.1H6.3c-0.3,0-0.6,0.1-0.9,0.4S5,20.1,5,20.5v5.1c0,0.3,0.1,0.6,0.4,0.9s0.6,0.4,0.9,0.4h33.4 c0.3,0,0.6-0.1,0.9-0.4s0.4-0.6,0.4-0.9v-5.1c0-0.3-0.1-0.6-0.4-0.9C40.4,19.4,40.1,19.1,39.7,19.1z M38.4,24.4H17.9v-2.6h20.6 L38.4,24.4L38.4,24.4z"/><path  d="M40.6,9.2c-0.3-0.3-0.6-0.4-0.9-0.4H6.3C6,8.8,5.7,8.9,5.4,9.2S5,9.8,5,10.1v5.1c0,0.3,0.1,0.6,0.4,0.9s0.6,0.4,0.9,0.4 h33.4c0.3,0,0.6-0.1,0.9-0.4s0.4-0.6,0.4-0.9v-5.1C41,9.9,40.9,9.5,40.6,9.2z M38.4,14h-7.7v-2.6h7.7V14z"/>
		</symbol>
		<symbol id="img-linkedin" viewBox="0 0 46 46">
			<path  fill="#0077B6" d="M42,26.9V41h-8.1V28c0-3.3-1.1-5.6-4.2-5.6c-2.3,0-3.5,1.5-4.2,3c-0.3,0.5-0.3,1.3-0.3,2v13.7 h-8.1c0,0,0.1-22.2,0-24.4h8.1v3.4c0,0,0,0,0,0.1l0,0v-0.1c1.1-1.6,3-4.1,7.3-4.1C37.9,15.9,42,19.5,42,26.9z M8.6,4.9 C5.8,4.9,4,6.6,4,9.1s1.8,4.2,4.6,4.2l0,0c2.8,0,4.6-1.9,4.6-4.2C13.1,6.5,11.3,4.9,8.6,4.9z M4.5,41h8.1V16.6H4.5V41z"/>
		</symbol>
		<symbol id="img-price-prop" viewBox="0 0 46 46">
			<path  fill="#000" d="M20.5 28.9H40.3V32.199999999999996H20.5z" transform="rotate(-44.992 30.436 30.516)"/><path fill="#000"  d="M19.9,11.9c-1.1-1.1-2.5-1.7-4.1-1.7c-1.5,0-2.9,0.6-4.1,1.7c-2.2,2.2-2.2,5.9,0,8.1c1.1,1.1,2.5,1.7,4.1,1.7 c1.5,0,2.9-0.6,4.1-1.7c1.1-1.1,1.7-2.5,1.7-4.1C21.6,14.4,21,13,19.9,11.9z M17.4,17.5c-0.8,0.8-2.3,0.8-3.1,0 c-0.8-0.8-0.8-2.2,0-3.1c0.4-0.4,1-0.6,1.5-0.6c0.6,0,1.1,0.2,1.5,0.6c0.4,0.4,0.6,1,0.6,1.5C18,16.5,17.8,17,17.4,17.5z"/><path  fill="none" d="M8.1 8.2L6.7 20.7 19.8 33.9 33.8 19.8 20.7 6.7z"/><path fill="#000"  d="M42.5,23.4L22.6,3.6c-0.4-0.4-0.9-0.6-1.5-0.5L6.2,4.8C5.4,4.9,4.7,5.6,4.6,6.4L3,21.2c0,0.6,0.1,1.1,0.5,1.4l19.9,19.9 c0.3,0.3,0.8,0.5,1.3,0.5s0.9-0.2,1.3-0.5l16.6-16.6c0.3-0.3,0.5-0.8,0.5-1.3C43,24.2,42.8,23.7,42.5,23.4z M19.8,33.9L6.7,20.7 L8.1,8.1l12.6-1.4l13.1,13.1L19.8,33.9z"/>
		</symbol>
		<symbol id="img-price" viewBox="0 0 46 46">
			<path  fill="#5da7a6" d="M20.5 28.9H40.3V32.199999999999996H20.5z" transform="rotate(-44.992 30.436 30.516)"/><path fill="#5da7a6"  d="M19.9,11.9c-1.1-1.1-2.5-1.7-4.1-1.7c-1.5,0-2.9,0.6-4.1,1.7c-2.2,2.2-2.2,5.9,0,8.1c1.1,1.1,2.5,1.7,4.1,1.7 c1.5,0,2.9-0.6,4.1-1.7c1.1-1.1,1.7-2.5,1.7-4.1C21.6,14.4,21,13,19.9,11.9z M17.4,17.5c-0.8,0.8-2.3,0.8-3.1,0 c-0.8-0.8-0.8-2.2,0-3.1c0.4-0.4,1-0.6,1.5-0.6c0.6,0,1.1,0.2,1.5,0.6c0.4,0.4,0.6,1,0.6,1.5C18,16.5,17.8,17,17.4,17.5z"/><path  fill="none" d="M8.1 8.2L6.7 20.7 19.8 33.9 33.8 19.8 20.7 6.7z"/><path fill="#5da7a6"  d="M42.5,23.4L22.6,3.6c-0.4-0.4-0.9-0.6-1.5-0.5L6.2,4.8C5.4,4.9,4.7,5.6,4.6,6.4L3,21.2c0,0.6,0.1,1.1,0.5,1.4l19.9,19.9 c0.3,0.3,0.8,0.5,1.3,0.5s0.9-0.2,1.3-0.5l16.6-16.6c0.3-0.3,0.5-0.8,0.5-1.3C43,24.2,42.8,23.7,42.5,23.4z M19.8,33.9L6.7,20.7 L8.1,8.1l12.6-1.4l13.1,13.1L19.8,33.9z"/>
		</symbol>
		<symbol id="img-price-sqft" viewBox="0 0 46 46">
			<path fill="#5da7a6" d="M5,5c0,12,0,24,0,36c12,0,24,0,36,0c0-12,0-24,0-36C29,5,17,5,5,5z M37.3,37.4c-3.8,0-7.5,0-11.3,0c0-5.8,0-11.5,0-17.3 c-5.8,0-11.6,0-17.4,0c0-3.8,0-7.5,0-11.3c9.1,0,18.1,0,27.3,0c-2.1,2.1-4.2,4.2-6.4,6.3c0-1.6,0-3,0-4.5c-0.7,0-1.4,0-2.1,0 c0,0.1,0,0.2,0,0.4c0,2.4,0,4.9,0,7.3c0,0.2,0,0.4,0.3,0.4c2.5,0,5,0,7.6,0c0.1,0,0.1,0,0.2,0c0-0.7,0-1.4,0-2.1c-1.4,0-2.9,0-4.3,0 v-0.1c2-2,4.1-4,6.2-6.1C37.3,19.4,37.3,28.4,37.3,37.4z"/>
		</symbol>
		<symbol id="img-search" viewBox="0 0 46 46">
			<path fill="#fff" d="M29,35.3c0,0,0.5-0.3,0.9,0.1c2.2,2.2,6,6,6,6c1.8,1.8,4.2,2.2,5.8,0.6l0.3-0.3c1.6-1.6,1.1-4-0.6-5.8c0,0-3.8-3.8-6-6 C35,29.5,35.3,29,35.3,29c4-6.7,3.1-15.3-2.6-21C25.9,1.2,14.9,1.2,8.1,8s-6.8,17.8,0,24.6C13.4,38.1,22.3,39.4,29,35.3z M11.7,29 C7,24.3,7,16.6,11.7,11.8c4.7-4.7,12.4-4.7,17.2,0c4.7,4.7,4.7,12.4,0,17.2C24.2,33.7,16.4,33.7,11.7,29z"/>
		</symbol>
		<symbol id="img-search-head" viewBox="0 0 46 46">
			<path fill="#A54D8A" d="M29,35.3c0,0,0.5-0.3,0.9,0.1c2.2,2.2,6,6,6,6c1.8,1.8,4.2,2.2,5.8,0.6l0.3-0.3c1.6-1.6,1.1-4-0.6-5.8c0,0-3.8-3.8-6-6 C35,29.5,35.3,29,35.3,29c4-6.7,3.1-15.3-2.6-21C25.9,1.2,14.9,1.2,8.1,8s-6.8,17.8,0,24.6C13.4,38.1,22.3,39.4,29,35.3z M11.7,29 C7,24.3,7,16.6,11.7,11.8c4.7-4.7,12.4-4.7,17.2,0c4.7,4.7,4.7,12.4,0,17.2C24.2,33.7,16.4,33.7,11.7,29z"/>
		</symbol>
		<symbol id="img-load" viewBox="0 0 46 46">
			<path  fill="#fff" d="M23,8.5V3l-7.3,7.3l7.3,7.3v-5.5c6,0,10.9,4.9,10.9,10.9c0,1.8-0.6,3.6-1.3,5.1l2.8,2.8c1.3-2.3,2.2-4.9,2.2-7.9 C37.5,15,31,8.5,23,8.5z M23,33.9c-6,0-10.9-4.9-10.9-10.9c0-1.8,0.5-3.6,1.3-5.1l-2.8-2.8c-1.3,2.3-2.2,4.9-2.2,7.9 c0,8,6.5,14.5,14.5,14.5V43l7.3-7.3L23,28.5V33.9z"/>
		</symbol>
		<symbol id="img-map" viewBox="0 0 46 46">
			<path fill="#858585" d="M23,3C15.2,3,8.8,9.4,8.8,17.2c0,2.7,0.7,5.3,2.1,7.4l11,17.7c0.3,0.5,0.7,0.7,1.2,0.7s1.1-0.3,1.3-0.7l10.7-17.8 c1.4-2.2,2.1-4.6,2.1-7.3C37.2,9.4,30.8,3,23,3z M34.3,17.2c-0.1,2.2-0.7,4.1-1.7,5.7l-9.3,15.7L13.7,23c-1.1-2-1.7-3.9-1.7-5.8 C12,11.2,17.1,6,23.2,6C29.2,6,34.3,11.1,34.3,17.2z"/>
			<path fill="#858585" d="M23,10c-4,0-7.3,3.3-7.3,7.3s3.3,7.3,7.3,7.3s7.3-3.3,7.3-7.3C30.2,13.2,27,10,23,10z M23,21.5c-2.3,0-4.2-1.8-4.2-4.2 c0-2.3,1.9-4.2,4.2-4.2c2.2,0,4.2,2,4.2,4.2C27.2,19.6,25.3,21.5,23,21.5z"/>
		</symbol>
		<symbol id="img-map-slider" viewBox="0 0 46 46">
			<path fill="#614A90" d="M23,3C15.2,3,8.8,9.4,8.8,17.2c0,2.7,0.7,5.3,2.1,7.4l11,17.7c0.3,0.5,0.7,0.7,1.2,0.7s1.1-0.3,1.3-0.7l10.7-17.8 c1.4-2.2,2.1-4.6,2.1-7.3C37.2,9.4,30.8,3,23,3z M34.3,17.2c-0.1,2.2-0.7,4.1-1.7,5.7l-9.3,15.7L13.7,23c-1.1-2-1.7-3.9-1.7-5.8 C12,11.2,17.1,6,23.2,6C29.2,6,34.3,11.1,34.3,17.2z"/>
			<path fill="#614A90" d="M23,10c-4,0-7.3,3.3-7.3,7.3s3.3,7.3,7.3,7.3s7.3-3.3,7.3-7.3C30.2,13.2,27,10,23,10z M23,21.5c-2.3,0-4.2-1.8-4.2-4.2 c0-2.3,1.9-4.2,4.2-4.2c2.2,0,4.2,2,4.2,4.2C27.2,19.6,25.3,21.5,23,21.5z"/>
		</symbol>
		<symbol id="img-map-view" viewBox="0 0 46 46">
			<path  d="M28.2,34.2l-1,1.3c5.3,0.5,8.4,1.9,8.4,2.9c0,1.2-4.9,3.1-12.6,3.1c-7.6,0-12.6-1.9-12.6-3.1c0-1,3.2-2.4,8.4-2.9l-1-1.3 c-4.9,0.6-8.9,2-8.9,4.2c0,3,7,4.6,14.1,4.6c6.9,0,14.1-1.5,14.1-4.6C37.1,36.2,33,34.8,28.2,34.2z"/><path  d="M23,38.4l10.7-14.2c1.7-2.2,2.6-4.9,2.6-8c0-7.3-5.9-13.3-13.3-13.3S9.7,8.8,9.7,16.2c0,3,1,5.7,2.6,8L23,38.4z M23,7.4 c4.9,0,8.9,3.9,8.9,8.9c0,4.9-3.9,8.9-8.9,8.9c-4.9,0-8.9-3.9-8.9-8.9C14.1,11.3,18.1,7.4,23,7.4z"/>
		</symbol>
		<symbol id="img-metro" viewBox="0 0 46 46">
			<path  d="M22.9,2.9C13.6,2.9,6.1,4,6.1,11.4v20c0,4,3.4,7.4,7.4,7.4L10.3,42v1.1h25.3V42l-3.2-3.2c4,0,7.4-3.4,7.4-7.4v-20 C39.8,3.9,32.2,2.9,22.9,2.9z M13.4,34.5c-1.7,0-3.2-1.5-3.2-3.2s1.5-3.2,3.2-3.2s3.2,1.5,3.2,3.2S15.1,34.5,13.4,34.5z M20.8,21.8H10.3V11.3h10.5V21.8z M32.4,34.5c-1.7,0-3.2-1.5-3.2-3.2s1.5-3.2,3.2-3.2c1.7,0,3.2,1.5,3.2,3.2S34.2,34.5,32.4,34.5z M35.5,21.8H25V11.3h10.5V21.8z"/>
		</symbol>
		<symbol id="img-play" viewBox="0 0 46 46">
			<path  d="M40.3,13C34.8,3.4,22.5,0.2,13,5.7C3.4,11.2,0.2,23.5,5.7,33c5.5,9.6,17.8,12.8,27.3,7.3C42.6,34.8,45.8,22.5,40.3,13z M30.2,24.2l-10.4,6c-1,0.6-1.7,0.1-1.7-1L18,17.1c0-1.1,0.8-1.5,1.7-1l10.5,6.1C31.2,22.7,31.2,23.6,30.2,24.2z"/>
		</symbol>
		<symbol id="img-parking" viewBox="0 0 46 46">
			<path  d="M31.4,20.3c-0.1,0-0.3,0-0.4,0.1l-1.5,0.4L27.9,17c-0.4-1.1-1.7-1.9-2.9-1.9H10.5C9.3,15.1,8,16,7.6,17l-1.5,3.8l-1.5-0.4 c-0.1,0-0.3-0.1-0.4-0.1c-0.7,0-1.2,0.5-1.2,1.3v0.9c0,0.9,0.7,1.6,1.6,1.6h0.2l-0.3,0.6c-0.4,1-0.7,2.7-0.7,3.8v7.5 c0,0.9,0.7,1.6,1.6,1.6h2.1c0.9,0,1.6-0.7,1.6-1.6V34h17.7v1.9c0,0.9,0.7,1.6,1.6,1.6h2.1c0.9,0,1.6-0.7,1.6-1.6v-7.5 c0-1.1-0.3-2.8-0.7-3.8l-0.3-0.6H31c0.9,0,1.6-0.7,1.6-1.6v-0.9C32.6,20.9,32.1,20.3,31.4,20.3z M7.2,23.1l2.3-5.7 c0.3-0.6,1-1.2,1.7-1.2h13c0.7,0,1.5,0.5,1.7,1.2l2.3,5.7c0.3,0.6-0.1,1.2-0.8,1.2H8C7.3,24.4,6.9,23.9,7.2,23.1z M12.4,30.4 c0,0.3-0.3,0.6-0.6,0.6H7.4c-0.3,0-0.6-0.3-0.6-0.6v-2.1c0-0.3,0.3-0.6,0.6-0.6h4.5c0.3,0,0.6,0.3,0.6,0.6v2.1H12.4z M28.8,30.4 c0,0.3-0.3,0.6-0.6,0.6h-4.5c-0.3,0-0.6-0.3-0.6-0.6v-2.1c0-0.3,0.3-0.6,0.6-0.6h4.5c0.3,0,0.6,0.3,0.6,0.6V30.4z"/><path  d="M41,8.5h-7.4c-1.1,0-2,0.9-2,2v7.4c0,1.1,0.9,2,2,2h3v16.7c0,0.4,0.3,0.7,0.7,0.7S38,37,38,36.6V19.9h3c1.1,0,2-0.9,2-2 v-7.4C43,9.4,42.1,8.5,41,8.5z M39.3,14.6c-0.4,0.4-1.1,0.6-1.9,0.6h-1.1c-0.1,0-0.2,0.1-0.2,0.2v1.8c0,0.2-0.2,0.4-0.4,0.4H35 c-0.2,0-0.4-0.2-0.4-0.4V11c0-0.2,0.2-0.4,0.4-0.4h2c1.4,0,1.9,0.2,2.3,0.6c0.4,0.4,0.7,0.9,0.7,1.7C40,13.6,39.8,14.3,39.3,14.6z"/><path  d="M38.2,12.1c-0.2-0.2-0.6-0.2-1-0.2h-0.7c-0.1,0-0.2,0.1-0.2,0.2v1.5c0,0.1,0.1,0.2,0.2,0.2h0.4c0.2,0,0.4,0,0.6,0 c0.2,0,0.6-0.1,0.8-0.2c0.2-0.1,0.3-0.4,0.3-0.8C38.5,12.6,38.4,12.4,38.2,12.1z"/>
		</symbol>
		<symbol id="img-school" viewBox="0 0 46 46">
			<path  d="M40.7,38.9V20.8c0-0.9-0.8-1.7-1.7-1.7h-8.1v-4.9c0-0.5-0.3-0.9-0.7-1.1l-6.6-3.7c0,0-0.1,0-0.1-0.1v-2H27 c0.3,0,0.5-0.2,0.5-0.5V4.2c0-0.3-0.2-0.5-0.5-0.5h-3.5V3.5C23.5,3.2,23.3,3,23,3s-0.5,0.2-0.5,0.5v5.9c0,0-0.1,0-0.1,0.1 l-6.6,3.7c-0.4,0.2-0.7,0.7-0.7,1.1v4.9H7c-0.9,0-1.7,0.8-1.7,1.7V39c-0.7,0.3-1.2,1.1-1.2,1.9C4.1,42.1,5,43,6.2,43h33.6 c1.2,0,2.1-0.9,2.1-2.1C41.9,40,41.4,39.2,40.7,38.9z M34.1,25.1c0-0.5,0.4-1,1-1H37c0.5,0,1,0.4,1,1V27c0,0.5-0.4,1-1,1h-1.9 c-0.5,0-1-0.4-1-1V25.1L34.1,25.1z M34.1,31.1c0-0.5,0.4-1,1-1H37c0.5,0,1,0.4,1,1V33c0,0.5-0.4,1-1,1h-1.9c-0.5,0-1-0.4-1-1V31.1 L34.1,31.1z M28.1,25.1c0-0.5,0.4-1,1-1H31c0.5,0,1,0.4,1,1V27c0,0.5-0.4,1-1,1h-1.9c-0.5,0-1-0.4-1-1V25.1z M28.1,31.1 c0-0.5,0.4-1,1-1H31c0.5,0,1,0.4,1,1V33c0,0.5-0.4,1-1,1h-1.9c-0.5,0-1-0.4-1-1V31.1z M23,14.2c1.6,0,2.8,1.3,2.8,2.8 c0,1.6-1.3,2.8-2.8,2.8c-1.6,0-2.8-1.3-2.8-2.8S21.4,14.2,23,14.2z M20.2,30.4c0-0.5,0.4-1,1-1h3.7c0.5,0,1,0.4,1,1v7.8 c0,0.2,0,0.3-0.1,0.5h-5.4c-0.1-0.1-0.1-0.3-0.1-0.5L20.2,30.4L20.2,30.4z M14,25.1c0-0.5,0.4-1,1-1h1.9c0.5,0,1,0.4,1,1V27 c0,0.5-0.4,1-1,1H15c-0.5,0-1-0.4-1-1V25.1z M14,31.1c0-0.5,0.4-1,1-1h1.9c0.5,0,1,0.4,1,1V33c0,0.5-0.4,1-1,1H15 c-0.5,0-1-0.4-1-1V31.1z M8.1,25.1c0-0.5,0.4-1,1-1H11c0.5,0,1,0.4,1,1V27c0,0.5-0.4,1-1,1H9.1c-0.5,0-1-0.4-1-1V25.1L8.1,25.1z M8.1,31.1c0-0.5,0.4-1,1-1H11c0.5,0,1,0.4,1,1V33c0,0.5-0.4,1-1,1H9.1c-0.5,0-1-0.4-1-1V31.1L8.1,31.1z"/>
		</symbol>
		<symbol id="img-size" viewBox="0 0 46 46">
			<path  d="M5 5L5 19 11 13 17 19 19 17 13 11 19 5z"/><path  d="M27 5L33 11 27 17 29 19 35 13 41 19 41 5z"/><path  d="M17 27L11 33 5 27 5 41 19 41 13 35 19 29z"/><path  d="M29 27L27 29 33 35 27 41 41 41 41 27 35 33z"/>
		</symbol>
		<symbol id="img-sort" viewBox="0 0 46 46">
			<path  d="M14 2.4L3 13.3 11.2 13.3 11.2 32.5 16.7 32.5 16.7 13.3 24.9 13.3z"/><path  d="M34.8 32.7L34.8 13.5 29.3 13.5 29.3 32.7 21.1 32.7 32 43.6 43 32.7z"/>
		</symbol>
		<symbol id="img-status" viewBox="0 0 46 46">
			<path  d="M7.3,29.4c5.2,0,10.5,0,15.7,0s10.3,0,15.5,0c-5.2,0-10.3,0-15.5,0C17.7,29.4,12.5,29.4,7.3,29.4z"/><path  d="M39.5,9.1c-1.6-0.2-3,0.4-3.9,1.8c-0.2,0.3-0.3,0.4-0.6,0.4c-2,0-3.9,0-5.9,0c-0.3,0-0.4-0.1-0.6-0.3 c-1.6-2.5-5.2-2.5-6.8,0c-0.2,0.3-0.3,0.3-0.6,0.3c-1.8,0-3.6,0-5.4,0c-0.3,0-0.5-0.1-0.6-0.4c-1-2.6-3.7-4.3-6.4-4 c-2.9,0.3-5.2,2.4-5.6,5.3c0,0.1,0,0.1-0.1,0.2c0,0.5,0,0.9,0,1.4c0,0.1,0.1,0.1,0.1,0.2c0.8,4.8,6.3,6.9,10.1,3.9 c1-0.8,1.6-1.8,2-2.9h0.1c2,0,4,0,6,0c0.1,0,0.3,0.1,0.4,0.3c1.6,2.5,5.2,2.5,6.8,0c0.1-0.2,0.3-0.3,0.5-0.3c2,0,3.9,0,5.9,0 c0.3,0,0.5,0.1,0.7,0.4c0.9,1.4,2.3,2,4,1.8c1.7-0.3,2.8-1.3,3.3-3c0-0.1,0.1-0.3,0.1-0.4c0-0.3,0-0.7,0-1 c-0.1-0.2-0.1-0.5-0.2-0.7C42.2,10.2,41.1,9.3,39.5,9.1z"/><path  d="M41.1,36.9c0-1-0.7-1.9-1.7-2.1c-0.3-0.1-0.6-0.1-0.9-0.1c-10.4,0-20.7,0-31.1,0c-0.2,0-0.3,0-0.5,0 c-1.1,0.1-1.9,0.8-2.1,1.9c-0.2,1,0.5,2,1.4,2.4c0.1,0.1,0.3,0.1,0.4,0.2c10.8,0,21.7,0,32.5,0c0.1,0,0.2-0.1,0.3-0.1 C40.5,38.8,41.2,37.9,41.1,36.9z"/><path  d="M39.5,25c-0.3-0.1-0.6-0.1-0.9-0.1c-10.4,0-20.8,0-31.1,0c-0.2,0-0.4,0-0.6,0C5.7,25,4.8,26.2,5,27.5 c0.2,1.2,1.1,1.9,2.4,1.9c5.2,0,10.5,0,15.7,0s10.3,0,15.5,0c0.2,0,0.3,0,0.5,0c1.1-0.1,2-0.9,2.1-2.1C41.2,26.3,40.5,25.3,39.5,25 z"/>
		</symbol>
		<symbol id="img-ellipses" viewBox="0 -5 40 65">
			<path fill="#A54D8A" d="M30,16c4.411,0,8-3.589,8-8s-3.589-8-8-8s-8,3.589-8,8S25.589,16,30,16z"/>
			<path fill="#A54D8A" d="M30,44c-4.411,0-8,3.589-8,8s3.589,8,8,8s8-3.589,8-8S34.411,44,30,44z"/>
			<path fill="#A54D8A" d="M30,22c-4.411,0-8,3.589-8,8s3.589,8,8,8s8-3.589,8-8S34.411,22,30,22z"/>
		</symbol>
		<symbol id="img-left-arrow" viewBox="60 0 20 135">
			<path fill="#fff" d="m88.6,121.3c0.8,0.8 1.8,1.2 2.9,1.2s2.1-0.4 2.9-1.2c1.6-1.6 1.6-4.2 0-5.8l-51-51 51-51c1.6-1.6 1.6-4.2 0-5.8s-4.2-1.6-5.8,0l-54,53.9c-1.6,1.6-1.6,4.2 0,5.8l54,53.9z"/>
		</symbol>
		<symbol id="img-right-arrow" viewBox="35 0 20 135">
			<path fill="#fff" d="m40.4,121.3c-0.8,0.8-1.8,1.2-2.9,1.2s-2.1-0.4-2.9-1.2c-1.6-1.6-1.6-4.2 0-5.8l51-51-51-51c-1.6-1.6-1.6-4.2 0-5.8 1.6-1.6 4.2-1.6 5.8,0l53.9,53.9c1.6,1.6 1.6,4.2 0,5.8l-53.9,53.9z"/>
		</symbol>
		<symbol id="img-close" viewBox="0 0 20 20">
			<path fill="#343a40"  d="M8.882,7.821l6.541-6.541c0.293-0.293,0.293-0.768,0-1.061  c-0.293-0.293-0.768-0.293-1.061,0L7.821,6.76L1.28,0.22c-0.293-0.293-0.768-0.293-1.061,0c-0.293,0.293-0.293,0.768,0,1.061  l6.541,6.541L0.22,14.362c-0.293,0.293-0.293,0.768,0,1.061c0.147,0.146,0.338,0.22,0.53,0.22s0.384-0.073,0.53-0.22l6.541-6.541  l6.541,6.541c0.147,0.146,0.338,0.22,0.53,0.22c0.192,0,0.384-0.073,0.53-0.22c0.293-0.293,0.293-0.768,0-1.061L8.882,7.821z"/>
		</symbol>
		<symbol id="img-luxury" viewBox="0 0 46 46">
			<path fill="#5da7a6" d="M41.3,22.4l-4.9-9.8c-0.2-0.4-0.6-0.7-1.1-0.7H10.7c-0.5,0-0.9,0.3-1.1,0.7l-4.9,9.8c-0.2,0.5-0.1,1,0.2,1.4l17.2,19.8
		c0.2,0.3,0.6,0.4,0.9,0.4s0.7-0.2,0.9-0.4l17.2-19.8C41.5,23.4,41.6,22.9,41.3,22.4z M33.3,14.4l-3.1,6.3l-4.7-6.3H33.3z
		 M27.9,21.8h-9.8l4.9-6.6L27.9,21.8z M20.5,14.4l-4.7,6.3l-3.1-6.3H20.5z M10.7,15.9l2.9,5.9H7.8L10.7,15.9z M8.5,24.2h6.3
		l6.1,14.2L8.5,24.2z M23,37.2l-5.5-12.9h11L23,37.2z M25.1,38.5l6.1-14.2h6.3L25.1,38.5z M32.4,21.8l2.9-5.9l2.9,5.9H32.4z"/>
			<path fill="#5da7a6" d="M23,7c0.7,0,1.2-0.6,1.2-1.2V3.2C24.2,2.6,23.7,2,23,2s-1.2,0.6-1.2,1.2v2.5C21.8,6.5,22.3,7,23,7z"/>
			<path fill="#5da7a6" d="M16,9.2c0.5,0.5,1.3,0.5,1.7,0c0.5-0.5,0.5-1.3,0-1.7L16,5.7c-0.5-0.5-1.3-0.5-1.7,0c-0.5,0.5-0.5,1.3,0,1.7L16,9.2z"/>
			<path fill="#5da7a6" d="M30,9.2l1.7-1.7c0.5-0.5,0.5-1.3,0-1.7c-0.5-0.5-1.3-0.5-1.7,0l-1.7,1.7c-0.5,0.5-0.5,1.3,0,1.7C28.7,9.6,29.5,9.6,30,9.2z
		"/>
		</symbol>
		<symbol id="img-download" viewBox="0 0 60 55">
		<path fill="#fff" d="M48.6,36.7v12.8H9.4V36.7H1.9v16.6c0,2.1,1.7,3.8,3.8,3.8h46.6c2.1,0,3.8-1.7,3.8-3.8V36.7H48.6z"/>
	    <path fill="#fff" d="M28.3,35.4l-10.8-13c0,0-1.6-1.5,0.1-1.5s6.1,0,6.1,0s0-1,0-2.6c0-4.6,0-12.9,0-16.3c0,0-0.2-0.9,1.1-0.9
		c1.4,0,7.5,0,8.5,0c1,0,1,0.8,1,0.8c0,3.3,0,11.9,0,16.3c0,1.4,0,2.4,0,2.4s3.4,0,5.6,0c2.2,0,0.5,1.6,0.5,1.6s-9.2,12.2-10.4,13.4
		C29.2,36.5,28.3,35.4,28.3,35.4z"/>
		</symbol>
		<symbol id="img-location" viewBox="0 0 46 46">
			<path fill="#5da7a6" d="M31.5,32.1c-0.4,0-0.7,0.2-0.8,0.6c0,0.4,0.2,0.7,0.6,0.8c7.4,0.9,11.3,3.2,11.3,4.6c0,1.9-7.5,4.5-19.6,4.5
			S3.4,39.9,3.4,38c0-1.4,3.9-3.7,11.3-4.6c0.4,0,0.7-0.4,0.6-0.8c0-0.4-0.4-0.7-0.8-0.6C7.1,33,2,35.4,2,38c0,3,7.2,6,21,6
			s21-3,21-6C44,35.4,38.9,33,31.5,32.1z"/>
			<path fill="#5da7a6" d="M22.9,40.3l10.7-15.5c4-5.4,3.4-14.2-1.2-18.9C29.8,3.4,26.5,2,22.9,2s-7,1.4-9.5,3.9c-4.7,4.7-5.3,13.5-1.3,18.9
			L22.9,40.3z M23,10.4c2.7,0,4.9,2.2,4.9,4.9s-2.2,4.9-4.9,4.9s-4.9-2.2-4.9-4.9S20.3,10.4,23,10.4z"/>
		</symbol>
		<symbol id="img-pdf" viewBox="0 0 46 46">
			<path fill="#fff" d="M21.4,15.1L21.4,15.1C21.6,15.1,21.6,15.1,21.4,15.1c0.2-0.9,0.5-1.4,0.5-2.1v-0.5c0.2-1.2,0.2-2.1,0-2.3c0,0,0,0,0-0.2
			l-0.2-0.2l0,0l0,0c0,0,0,0.2-0.2,0.2C20.9,11.3,20.9,13,21.4,15.1L21.4,15.1z M14.4,31.2c-0.5,0.2-0.9,0.5-1.2,0.7
			c-1.6,1.4-2.8,3-3,3.7l0,0l0,0l0,0C11.6,35.4,13,34,14.4,31.2C14.6,31.2,14.6,31.2,14.4,31.2C14.6,31.2,14.4,31.2,14.4,31.2z
			 M35.8,27.7c-0.2-0.2-1.2-0.9-4.4-0.9c-0.2,0-0.2,0-0.5,0l0,0c0,0,0,0,0,0.2c1.6,0.7,3.3,1.2,4.4,1.2c0.2,0,0.2,0,0.5,0l0,0h0.2
			c0,0,0,0,0-0.2l0,0C36.1,27.9,35.8,27.9,35.8,27.7z M39.3,2H6.7C4.1,2,2,4.1,2,6.7v32.7C2,41.9,4.1,44,6.7,44h32.7
			c2.6,0,4.7-2.1,4.7-4.7V6.7C44,4.1,41.9,2,39.3,2z M36.8,29.5c-0.5,0.2-1.2,0.5-2.1,0.5c-1.9,0-4.7-0.5-7-1.6
			c-4,0.5-7,0.9-9.3,1.9c-0.2,0-0.2,0-0.5,0.2c-2.8,4.9-5.1,7.2-7,7.2c-0.5,0-0.7,0-0.9-0.2l-1.2-0.7v-0.2c-0.2-0.5-0.2-0.7-0.2-1.2
			c0.2-1.2,1.6-3.3,4.4-4.9c0.5-0.2,1.2-0.7,2.1-1.2c0.7-1.2,1.4-2.6,2.3-4.2c1.2-2.3,1.9-4.7,2.6-6.8l0,0c-0.9-2.8-1.4-4.4-0.5-7.7
			c0.2-0.9,0.9-1.9,1.9-1.9h0.5c0.5,0,0.9,0.2,1.4,0.5c1.6,1.6,0.9,5.4,0,8.4c0,0.2,0,0.2,0,0.2c0.9,2.6,2.3,4.7,3.7,6.1
			c0.7,0.5,1.2,0.9,2.1,1.4c1.2,0,2.1-0.2,3-0.2c2.8,0,4.7,0.5,5.4,1.6c0.2,0.5,0.2,0.9,0.2,1.4C37.5,28.4,37.2,29.1,36.8,29.5z
			 M21.6,20.4c-0.5,1.6-1.4,3.5-2.3,5.6c-0.5,0.9-0.9,1.6-1.4,2.6h0.2h0.2l0,0c3-1.2,5.8-1.9,7.7-2.1c-0.5-0.2-0.7-0.5-0.9-0.7
			C23.9,24.4,22.5,22.5,21.6,20.4z"/>
		</symbol>
		<symbol id="img-title-type" viewBox="0 0 46 46">
			<path fill="#A54D8A" d="M44,13.3L37.4,2H8.6L2,13.3V44h42V13.3z M11,6.1h24l3.3,5.7H7.7L11,6.1z M25.9,39.9h-5.8V27.5h5.8V39.9z M30,39.9V23.4H16
		v16.5H6.1V15.9h33.7v23.9H30L30,39.9z"/>
		</symbol>
		<symbol id="img-townhouse" viewBox="0 0 46 46">
			<path fill="#5da7a6" d="M36.6,4.3l-6.3,5L23,4.4l-7.3,4.9l-6.3-5L2,10.2v31.5h42V10.2L36.6,4.3z M14.4,39.2h-3.7v-6.2H8.2v6.2H4.5V26.9h9.9V39.2z
	 M14.4,24.5h-3.7v-3.9H8.2v3.9H4.5V11.4l5-3.9l5,3.9V24.5z M24.2,39.2h-2.5v-3.7c0-0.7,0.6-1.2,1.2-1.2s1.2,0.6,1.2,1.2V39.2z
	 M29.2,39.2h-2.5v-3.7c0-2-1.7-3.7-3.7-3.7s-3.7,1.7-3.7,3.7v3.7h-2.5V26.9h12.3V39.2z M29.2,24.5h-2.5v-3.9h-2.5v3.9h-2.5v-3.9
	h-2.5v3.9h-2.5v-13L23,7.3l6.2,4.1V24.5z M41.5,39.2h-3.7v-6.2h-2.5v6.2h-3.7V26.9h9.9V39.2z M41.5,24.5h-3.7v-3.9h-2.5v3.9h-3.7
	V11.4l5-3.9l5,3.9V24.5z"/>
		</symbol>
		<symbol id="img-handover" viewBox="0 0 46 46">
			<path fill="#5da7a6" d="M42.2,28.4c-2.4,1.3-5.7,2.6-9.1,3.1c-3,0.5-8.5-0.7-8.5-2c0-0.5,4.9,1.2,7.8,0.4c2.3-0.6,1.9-2.7,0.7-3
				c-1.2-0.3-8.4-2.9-11.4-3c-1.4,0-5,0.5-6.7,0.8c-0.6,0.1-1,0.1-1,0.6c-0.2,2.6-0.5,8-0.7,10.8c0,0.1,0.1,0.9,0.7,0.3
				c0.7-0.6,1.7-1.3,2.7-1.1c1.5,0.3,14.1,2.7,15.9,2.2c2.5-0.6,9.6-4.8,10.9-6.1C45.6,29.6,44,27.5,42.2,28.4z"/>
			<path fill="#5da7a6" d="M10.5,24.7l-6.6-0.3c-0.5,0-1,0.4-1.2,0.9L1.5,36.2c-0.1,0.5,0.2,0.9,0.7,0.9l7.3,0c0.5,0,1-0.4,1-0.9l0.8-10.5
				C11.4,25.2,11,24.7,10.5,24.7z M6.6,35.7c-1,0-1.8-0.8-1.8-1.8c0-1,0.8-1.8,1.8-1.8c1,0,1.8,0.8,1.8,1.8
				C8.5,34.8,7.6,35.7,6.6,35.7z"/>
			<path fill="#5da7a6" d="M40.8,19.4l0.5-1.6c0.3-1-0.3-2-1.2-2.3c-1-0.3-2,0.3-2.3,1.2l-0.5,1.6c0,0-0.1,0.4-0.5,0.2c-0.3-0.1-1.2-0.3-1.2-0.3
				s-0.4-0.1-0.3-0.5c0.2-0.6,0.7-2.3,0.7-2.3c0.3-1-0.3-2-1.2-2.3c-1-0.3-2,0.3-2.3,1.2c0,0-0.5,1.7-0.7,2.3
				c-0.1,0.4-0.5,0.2-0.5,0.2l-5.1-1.5c-0.4-0.1-0.4-0.7-0.4-0.9c-0.3-2.7-2.1-5.1-4.9-6c-3.7-1.1-7.5,1-8.6,4.7
				c-1.1,3.7,1,7.5,4.7,8.6c2.9,0.9,5.9-0.3,7.6-2.6c0.1-0.1,0.3-0.4,0.6-0.3l14.4,4.3c1,0.3,2-0.3,2.3-1.2c0.2-0.8-0.1-1.6-0.7-2
				C41,19.8,40.7,19.6,40.8,19.4z M17.7,19.5c-2.4-0.7-3.7-3.2-3-5.6c0.7-2.4,3.2-3.7,5.6-3s3.7,3.2,3,5.6
				C22.6,18.8,20.1,20.2,17.7,19.5z"/>
		</symbol>
		<symbol id="img-launch" viewBox="0 0 46 46">
		<path fill="#5da7a6" class="st0" d="M7.2,40.1h18c0.1,0,0.2-0.1,0.2-0.2V20.8c0-0.1-0.1-0.2-0.2-0.2H6.1c0,0-0.1,0-0.1,0.1v18.1
		C6,39.5,6.5,40.1,7.2,40.1z"/>
		<path fill="#5da7a6" d="M41.3,17.5c0.4,0,0.9-0.2,1.2-0.5c0.3-0.3,0.5-0.7,0.5-1.2V4.6c0-0.4-0.2-0.9-0.5-1.2s-0.7-0.5-1.2-0.5H30.1
		c-0.9,0-1.7,0.8-1.7,1.7c0,0.4,0.2,0.9,0.5,1.2c0.3,0.3,0.7,0.5,1.2,0.5h7.2L25.6,17.9c-0.1,0.1-0.1,0.1-0.1,0.2
		c1.2,0.1,2.2,1.1,2.4,2.3c0,0,0.1-0.1,0.1-0.1L39.6,8.6v7.2C39.6,16.7,40.4,17.5,41.3,17.5z"/>
		<path fill="#5da7a6" d="M3.4,40V20.8c0-1.4,1.1-2.6,2.5-2.7V7.6c0-0.8,0.6-1.4,1.4-1.4h15.9v0C23.4,5,23.9,4,24.6,3.2l0,0H7.4C5,3.2,3,5.2,3,7.6
		v31.2c0,0.8,0.2,1.5,0.6,2.2C3.5,40.6,3.4,40.3,3.4,40z"/>
		<path fill="#5da7a6" d="M7.2,40.1C6.5,40.1,6,39.5,6,38.7V20.7c0,0,0,0.1,0,0.1V40c0,0.1,0.1,0.2,0.2,0.2H7.2z"/>
		<path fill="#5da7a6" d="M25.2,42.6H6.1c-0.4,0-0.7-0.1-1-0.2c0.7,0.4,1.5,0.7,2.3,0.7h31.2c2.4,0,4.4-2,4.4-4.4V21.5l0,0c-0.8,0.8-1.8,1.2-2.9,1.3
		h0v15.9c0,0.8-0.6,1.4-1.4,1.4H27.9C27.8,41.5,26.6,42.6,25.2,42.6z"/>
		<path fill="#5da7a6" d="M25.4,18.1c-0.1,0-0.2,0-0.2,0H6.1c0,0-0.1,0-0.1,0c-1.4,0.1-2.5,1.2-2.5,2.7V40c0,0.3,0.1,0.6,0.2,0.9
		c0.3,0.7,0.8,1.2,1.5,1.5c0.3,0.1,0.7,0.2,1,0.2h19.1c1.4,0,2.6-1.1,2.7-2.5c0-0.1,0-0.1,0-0.2V20.8c0-0.1,0-0.2,0-0.3
		C27.7,19.2,26.7,18.2,25.4,18.1z M5.9,40V20.8c0,0,0-0.1,0-0.1c0,0,0.1-0.1,0.1-0.1h19.1c0.1,0,0.2,0.1,0.2,0.2V40
		c0,0.1-0.1,0.2-0.2,0.2h-18H6.1C6,40.1,5.9,40.1,5.9,40z"/>
		</symbol>
		<symbol id="icon-underconstruction" viewBox="0 0 58 58">
			<title>Under Construction</title>
			<polygon class="st0" fill="transparent" points="35.9,24 35.9,34.1 41.3,29.1 	"/>
			<polygon class="st0" fill="transparent" points="42.8,42.6 42.8,32.5 37.4,37.6 	"/>
			<polygon class="st0" fill="transparent" points="35.9,7 35.9,17.2 41.3,12.2 	"/>
			<rect x="5.9" y="10.4" class="st0" fill="transparent" width="26.7" height="2.7"/>
			<polygon class="st0" fill="transparent" points="42.8,25.7 42.8,15.5 37.4,20.6 	"/>
			<rect x="46.2" y="10.4" class="st0" fill="transparent" width="5.8" height="2.7"/>
			<polygon class="st0" fill="transparent" points="42.8,8.8 42.8,5.3 39.2,5.3 	"/>
			<path class="st1" fill="#5da7a6" d="M53,8h-6.9V3.7c0-0.9-0.8-1.7-1.7-1.7H34.1c-0.9,0-1.7,0.8-1.7,1.7V8H4.7C4.1,8,3.5,8.6,3.5,9.2v4.9
		c0,0.6,0.5,1.2,1.2,1.2h6.6v5.1c-1.3,0.5-2.2,1.7-2.2,3.1c0,1.4,0.9,2.7,2.2,3.1v2.7c0,1.3,0.9,1.9,1.5,2.4s1.2,0.8,1.2,1.9
		c0,0.8-0.6,1.4-1.4,1.4c-0.5,0-1-0.3-1.3-0.8s-1-0.8-1.5-0.5c-0.5,0.3-0.8,1-0.5,1.5c0.6,1.3,1.9,2.1,3.3,2.1
		c2.1,0,3.7-1.7,3.7-3.7c0-2.3-1.2-3.2-2.1-3.9c-0.5-0.4-0.6-0.5-0.6-0.6v-2.4c1.3-0.5,2.2-1.7,2.2-3.1c0-1.4-0.9-2.7-2.2-3.1v-5.1
		h19v28.5h3.5v-2.8l3.1,2.8h7.2V15.4h6.9c0.6,0,1.2-0.5,1.2-1.2V9.3C54.2,8.6,53.7,8,53,8z M32.5,12.9H5.9v-2.7h26.7v2.7H32.5z
		 M35.9,7l5.4,5l-5.4,5.1V7z M35.9,24l5.4,5.1l-5.4,5.1V24z M42.8,42.6l-5.4-5.1l5.4-5.1V42.6z M42.8,25.7l-5.4-5.1l5.4-5.1V25.7z
		 M42.8,8.8l-3.6-3.3h3.6V8.8z M51.9,12.9h-5.8v-2.7h5.8V12.9z"/>
	<path class="st2" fill="#5da7a6" d="M4.7,54.8c0,0.6,0.5,1.2,1.2,1.2H52c0.6,0,1.2-0.5,1.2-1.2v-8.5H4.7V54.8z"/>
</symbol>
<symbol id="icon-handover-o" viewBox="0 0 58 58">
	<title>Handover</title>
	<path class="st0" fill="#5da7a6" d="M20.5,24.7l0.9,3.4l-6.2,6.5l-0.5,7.1l-7.4,0.8l-5,5L2,55.9l8.8-0.1L30,36.5l3.4,0.9c6.2,1.7,12.9-0.1,17.4-4.6
	c7-7,7-18.5,0-25.4s-18.5-7-25.4,0C20.6,11.9,18.8,18.5,20.5,24.7z M38.8,12.6c1.8-1.8,4.6-1.8,6.5,0s1.8,4.6,0,6.5
	c-1.8,1.8-4.6,1.8-6.5,0C37,17.4,37,14.4,38.8,12.6z"/>
</symbol>
<symbol id="icon-list-sell" viewBox="0 0 58 58">
<title>Payment Plan</title>
	<polygon class="st0" fill="#fff" points="43.2,46.4 46.7,46.4 46.7,45.2 44.4,45.2 44.4,42.9 46.2,42.9 46.2,41.8 44.4,41.8 44.4,39.5
		46.7,39.5 46.7,38.3 43.2,38.3 	"/>
	<path class="st0" fill="#fff" d="M39.4,38.3L38,46.4h1.2l0.2-1.4H41l0.2,1.4h1.3l-1.3-8.1H39.4z M39.7,43.9l0.6-4.1l0,0l0.6,4.1H39.7z"/>
	<path class="st0" fill="#fff" d="M49.4,38.3h-2v8.1h2c1.3,0,1.9-0.7,1.9-2v-4.1C51.3,39,50.7,38.3,49.4,38.3z M50,44.5c0,0.6-0.2,0.8-0.6,0.8
		h-0.7v-5.7h0.7c0.4,0,0.6,0.2,0.6,0.8V44.5z"/>
	<path class="st1" fill="#5da7a6" d="M19.8,40.4v-6.8h-5.1c0.2,0.7,0.4,1.3,0.4,2c0,1.8-0.6,3.4-1.7,4.7h6.5V40.4z"/>
	<path class="st1" fill="#5da7a6" d="M42,13.1c1,0,1.7-0.7,1.7-1.7V6.1c0-1-0.7-1.7-1.7-1.7c-1,0-1.7,0.7-1.7,1.7v5.4C40.2,12.4,41,13.1,42,13.1z"/>
	<path class="st1" fill="#5da7a6" d="M14.7,13.1c1,0,1.7-0.7,1.7-1.7V6.1c0-1-0.7-1.7-1.7-1.7S13,5.1,13,6.1v5.4C13,12.4,13.7,13.1,14.7,13.1z"/>
	<path class="st1" fill="#5da7a6" d="M9.5,28.6V20H47v7.5h3.4v-14c0-2-1.7-3.7-3.7-3.7h-1.4v1.7c0,1.9-1.6,3.4-3.4,3.4c-1.9,0-3.4-1.6-3.4-3.4V9.8
		H18v1.7c0,1.9-1.6,3.4-3.4,3.4c-1.9,0-3.4-1.6-3.4-3.4V9.8H9.9c-2,0-3.7,1.7-3.7,3.7v15c0.5-0.1,1-0.1,1.4-0.1
		C8.3,28.3,8.9,28.5,9.5,28.6z"/>
	<rect x="23.2" y="23.4"  fill="#5da7a6" class="st1" width="6.8" height="6.8"/>
	<rect x="23.2" y="33.6"  fill="#5da7a6" class="st1" width="6.8" height="6.8"/>
	<rect x="13" y="23.4"  fill="#5da7a6" class="st1" width="6.8" height="6.8"/>
	<rect x="33.4" y="23.4"  fill="#5da7a6" class="st1" width="6.8" height="6.8"/>
	<polygon class="st1" fill="#5da7a6" points="11.3,43.8 11.3,46.4 10.5,47.3 28.7,47.3 28.7,43.8 	"/>
	<path class="st2" fill="#5da7a6" d="M49.4,39.5h-0.7v5.7h0.7c0.4,0,0.6-0.2,0.6-0.8v-4.2C50,39.7,49.8,39.5,49.4,39.5z"/>
	<path class="st3" fill="#5da7a6" d="M44.7,31.1c-6.2,0-11.3,5-11.3,11.3s5,11.3,11.3,11.3S56,48.6,56,42.4S51,31.1,44.7,31.1z M41.3,46.4L41,45
		h-1.6l-0.2,1.4H38l1.3-8.1h1.9l1.3,8.1H41.3z M46.7,39.5h-2.2v2.3h1.8v1.2h-1.8v2.4h2.2v1.2h-3.5v-8.1h3.5V39.5z M51.3,44.4
		c0,1.3-0.6,2-1.9,2h-2v-8.1h2c1.3,0,1.9,0.7,1.9,2V44.4z"/>
	<polygon class="st4" fill="#5da7a6" points="40.3,39.7 39.7,43.9 40.9,43.9 	"/>
	<path class="st5" fill="#5da7a6" d="M13.3,35.8c0-3.1-2.5-5.6-5.6-5.6S2,32.7,2,35.8c0,2,1.1,3.8,2.8,4.8l1,0.5v10.3l1.9,1.9l1.8-1.9v-2.3
		l-1.9-1.7l1.9-1.8V41l1-0.5C12.2,39.6,13.3,37.7,13.3,35.8z M7.6,35.3c-0.8,0-1.4-0.6-1.4-1.4c0-0.8,0.6-1.4,1.4-1.4
		s1.4,0.6,1.4,1.4C9.1,34.7,8.5,35.3,7.6,35.3z"/>
	<polygon class="st1"  fill="#5da7a6" points="28.7,43.8 28.7,47.3 28.7,48.7 31.3,45.6 28.7,42.4 	"/>
</symbol>
	</defs>

</svg>